<svg width="163" height="44" viewBox="0 0 163 44" fill="none" xmlns="http://www.w3.org/2000/svg">
<path d="M5.872 8.712C6.93867 8.22133 7.89867 7.86933 8.752 7.656C9.60533 7.44267 10.4907 7.336 11.408 7.336C13.264 7.336 14.8853 7.848 16.272 8.872C17.6587 9.87467 18.736 11.2827 19.504 13.096C20.2933 14.9093 20.688 17.032 20.688 19.464C20.688 21.5333 20.3893 23.432 19.792 25.16C19.216 26.8667 18.384 28.3493 17.296 29.608C16.2293 30.8453 14.9493 31.8053 13.456 32.488C11.984 33.1493 10.352 33.48 8.56 33.48C7.664 33.48 6.72533 33.384 5.744 33.192C4.784 33 3.87733 32.744 3.024 32.424C2.17067 32.0827 1.456 31.7093 0.88 31.304C1.136 29.9813 1.37067 28.5947 1.584 27.144C1.79733 25.6933 1.98933 24.232 2.16 22.76C2.352 21.2667 2.50133 19.7947 2.608 18.344C2.736 16.872 2.832 15.4427 2.896 14.056C2.96 12.6693 2.992 11.368 2.992 10.152C2.992 9.34133 2.98133 8.68 2.96 8.168C2.93867 7.656 2.896 7.22933 2.832 6.888C2.768 6.52533 2.672 6.19466 2.544 5.896C3.46133 6.19466 4.18667 6.568 4.72 7.016C5.25333 7.464 5.63733 8.02933 5.872 8.712ZM4.592 30.76C5.01867 31.0373 5.49867 31.24 6.032 31.368C6.58667 31.496 7.14133 31.56 7.696 31.56C9.744 31.56 11.4827 31.08 12.912 30.12C14.3413 29.1387 15.4293 27.7413 16.176 25.928C16.944 24.0933 17.328 21.8853 17.328 19.304C17.328 17.3413 17.04 15.624 16.464 14.152C15.888 12.68 15.0773 11.5387 14.032 10.728C12.9867 9.896 11.76 9.48 10.352 9.48C9.66933 9.48 8.95467 9.576 8.208 9.768C7.48267 9.96 6.84267 10.216 6.288 10.536C6.288 11.3467 6.224 12.424 6.096 13.768C5.98933 15.0907 5.85067 16.552 5.68 18.152C5.53067 19.7307 5.37067 21.32 5.2 22.92C5.02933 24.52 4.88 26.0133 4.752 27.4C4.64533 28.7653 4.592 29.8853 4.592 30.76ZM35.6565 27.56C35.2512 28.6693 34.6645 29.672 33.8965 30.568C33.1498 31.4427 32.3072 32.136 31.3685 32.648C30.4512 33.1387 29.5125 33.384 28.5525 33.384C27.1232 33.384 26.0032 32.8293 25.1925 31.72C24.4032 30.6107 24.0085 29.0533 24.0085 27.048C24.0085 25.448 24.2325 23.944 24.6805 22.536C25.1498 21.1067 25.7792 19.8587 26.5685 18.792C27.3792 17.7253 28.3178 16.8933 29.3845 16.296C30.4512 15.6773 31.5925 15.368 32.8085 15.368C33.1712 15.368 33.5552 15.4107 33.9605 15.496C34.3658 15.56 34.8245 15.6667 35.3365 15.816C34.1845 16.0933 33.1178 16.5733 32.1365 17.256C31.1765 17.9387 30.3445 18.76 29.6405 19.72C28.9578 20.68 28.4245 21.7467 28.0405 22.92C27.6565 24.0933 27.4645 25.3307 27.4645 26.632C27.4645 27.9333 27.6885 28.936 28.1365 29.64C28.5845 30.3227 29.2245 30.664 30.0565 30.664C30.9312 30.664 31.7632 30.3227 32.5525 29.64C33.3418 28.936 34.0565 27.9973 34.6965 26.824C35.3365 25.6293 35.8378 24.2853 36.2005 22.792C36.5632 21.2773 36.7445 19.7093 36.7445 18.088C36.7445 17.5333 36.7232 16.968 36.6805 16.392C36.6378 15.7947 36.5738 15.272 36.4885 14.824C36.7018 14.8027 36.8938 14.792 37.0645 14.792C37.2352 14.7707 37.3952 14.76 37.5445 14.76C38.4192 14.76 39.0805 14.984 39.5285 15.432C39.9978 15.88 40.2325 16.5307 40.2325 17.384C40.2325 17.9387 40.1578 18.6533 40.0085 19.528C39.8592 20.4027 39.6778 21.384 39.4645 22.472C39.2725 23.56 39.0912 24.7013 38.9205 25.896C38.7712 27.0907 38.6965 28.2747 38.6965 29.448C38.6965 30.3653 38.7712 31.1547 38.9205 31.816C39.0698 32.4773 39.3258 33.224 39.6885 34.056C38.3232 33.7787 37.3418 33.1813 36.7445 32.264C36.1472 31.3467 35.8485 30.0027 35.8485 28.232C35.8485 28.0613 35.8485 27.944 35.8485 27.88C35.8485 27.7947 35.8592 27.7093 35.8805 27.624L35.6565 27.56ZM48.769 30.184C48.769 30.952 48.801 31.624 48.865 32.2C48.929 32.7547 49.025 33.1813 49.153 33.48C48.321 33.1813 47.6597 32.7867 47.169 32.296C46.6997 31.784 46.369 31.1653 46.177 30.44C45.985 29.6933 45.889 28.7973 45.889 27.752C45.889 26.8133 45.9743 25.768 46.145 24.616C46.3157 23.464 46.4863 22.2907 46.657 21.096C46.8277 19.9013 46.913 18.76 46.913 17.672C46.913 17.1173 46.9023 16.5733 46.881 16.04C46.881 15.4853 46.8277 14.9413 46.721 14.408C46.8703 14.3867 47.0303 14.376 47.201 14.376C47.3717 14.3547 47.521 14.344 47.649 14.344C48.609 14.344 49.3023 14.5573 49.729 14.984C50.1557 15.4107 50.369 16.1147 50.369 17.096C50.369 17.7147 50.241 18.6747 49.985 19.976C49.729 21.2773 49.4623 22.8027 49.185 24.552C48.929 26.3013 48.7903 28.1787 48.769 30.184ZM50.209 11.688C49.953 11.7733 49.6757 11.848 49.377 11.912C49.0783 11.976 48.7797 12.008 48.481 12.008C48.1823 12.008 47.8837 11.9653 47.585 11.88C47.2863 11.7733 47.0303 11.6027 46.817 11.368C46.625 11.112 46.529 10.7813 46.529 10.376C46.529 10.0133 46.593 9.66133 46.721 9.32C46.849 8.97867 46.977 8.62667 47.105 8.264C47.361 8.15733 47.6383 8.08267 47.937 8.04C48.257 7.976 48.5557 7.944 48.833 7.944C49.1317 7.944 49.4303 7.99733 49.729 8.104C50.0277 8.18933 50.273 8.34933 50.465 8.584C50.6783 8.81867 50.785 9.14933 50.785 9.576C50.785 9.91733 50.721 10.2693 50.593 10.632C50.465 10.9733 50.337 11.3253 50.209 11.688ZM55.4983 29.256C55.4983 28.552 55.5729 27.5493 55.7223 26.248C55.8716 24.9467 56.0529 23.4747 56.2663 21.832C56.4796 20.1893 56.6823 18.4827 56.8743 16.712C57.0876 14.9413 57.2689 13.224 57.4183 11.56C57.5676 9.896 57.6423 8.41333 57.6423 7.112C57.6423 6.23733 57.6103 5.48 57.5463 4.84C57.4823 4.17866 57.3863 3.688 57.2583 3.368C58.0689 3.66666 58.7089 4.06133 59.1783 4.552C59.6689 5.04266 60.0103 5.65067 60.2023 6.376C60.4156 7.10133 60.5223 7.96533 60.5223 8.968C60.5223 9.94933 60.4263 11.2293 60.2343 12.808C60.0423 14.3867 59.8289 16.1573 59.5943 18.12C59.3596 20.0827 59.1463 22.1307 58.9543 24.264C58.7623 26.3973 58.6663 28.5093 58.6663 30.6C58.6663 31.0907 58.6769 31.5813 58.6983 32.072C58.7409 32.5413 58.7729 33.0107 58.7943 33.48C58.0049 33.4373 57.3863 33.3093 56.9383 33.096C56.4903 32.8827 56.1596 32.5947 55.9463 32.232C55.7543 31.8693 55.6263 31.4427 55.5623 30.952C55.5196 30.44 55.4983 29.8747 55.4983 29.256ZM65.7328 40.296C65.7328 39.5707 65.9248 38.6747 66.3088 37.608C66.6928 36.5413 67.1941 35.3573 67.8128 34.056C68.4528 32.7547 69.1461 31.3787 69.8928 29.928C70.6608 28.4773 71.4181 27.016 72.1648 25.544C72.9328 24.0507 73.6261 22.6 74.2448 21.192C74.8848 19.7627 75.3968 18.4293 75.7808 17.192C76.1648 15.9333 76.3568 14.8133 76.3568 13.832C77.0608 14.3013 77.5621 14.7707 77.8608 15.24C78.1808 15.688 78.3408 16.1893 78.3408 16.744C78.3408 17.448 78.1168 18.3013 77.6688 19.304C77.2208 20.2853 76.6341 21.3947 75.9088 22.632C75.2048 23.8693 74.4581 25.2027 73.6688 26.632C72.8794 28.0613 72.1221 29.5653 71.3968 31.144C70.6928 32.7227 70.1168 34.3547 69.6688 36.04C69.2208 37.7253 68.9968 39.4427 68.9968 41.192C68.9968 41.6187 69.0074 42.0667 69.0288 42.536C69.0714 43.0053 69.1354 43.4747 69.2208 43.944C68.4741 43.8373 67.8661 43.656 67.3968 43.4C66.9488 43.144 66.5968 42.8453 66.3408 42.504C66.1061 42.1627 65.9461 41.7893 65.8608 41.384C65.7754 41 65.7328 40.6373 65.7328 40.296ZM68.1648 34.504C68.0154 33.2667 67.8341 31.9227 67.6208 30.472C67.4074 29.0213 67.1621 27.5493 66.8848 26.056C66.6288 24.5627 66.3301 23.1227 65.9888 21.736C65.6688 20.328 65.3168 19.048 64.9328 17.896C64.5701 16.744 64.1648 15.8053 63.7168 15.08C64.0154 14.8453 64.3781 14.6533 64.8048 14.504C65.2314 14.3333 65.6474 14.248 66.0528 14.248C66.7781 14.248 67.3541 14.5893 67.7808 15.272C68.2074 15.9333 68.5381 16.8293 68.7728 17.96C69.0288 19.0693 69.2208 20.3173 69.3488 21.704C69.4768 23.0907 69.6048 24.52 69.7328 25.992C69.8608 27.4427 70.0208 28.8187 70.2128 30.12L68.1648 34.504ZM98.1528 33.748C95.8648 33.748 94.7208 32.7653 94.7208 30.8C94.7208 30.1547 94.8088 29.4213 94.9848 28.6C95.1901 27.7493 95.4688 26.664 95.8208 25.344C96.2314 23.9653 96.5394 22.792 96.7448 21.824C96.9501 20.856 97.0528 19.9907 97.0528 19.228C97.0528 17.2333 96.1728 16.236 94.4128 16.236C93.9141 16.236 93.4301 16.2947 92.9608 16.412L89.4408 33H83.1048L89.4848 3.08C87.5194 3.90133 85.9941 5.13333 84.9088 6.776C83.8528 8.41867 83.3248 10.3987 83.3248 12.716C83.3248 13.8013 83.4274 14.564 83.6328 15.004C83.8381 15.4147 83.9408 15.6493 83.9408 15.708C82.3568 15.708 81.1688 15.3853 80.3768 14.74C79.6141 14.0653 79.2328 12.9653 79.2328 11.44C79.2328 9.56267 79.9954 7.744 81.5208 5.984C83.0754 4.19467 85.0554 2.75733 87.4608 1.672C89.8661 0.557331 92.2714 -2.6226e-06 94.6768 -2.6226e-06C95.0874 -2.6226e-06 95.6741 0.0293312 96.4368 0.0879989L93.5768 13.552L98.1088 7.48C101.717 2.61066 103.535 0.190664 103.565 0.219997H108.185L95.9528 14.3L97.4928 14.256C99.4874 14.256 100.895 14.6813 101.717 15.532C102.538 16.3533 102.949 17.4973 102.949 18.964C102.949 19.8147 102.846 20.724 102.641 21.692C102.435 22.6307 102.142 23.804 101.761 25.212C101.526 26.1213 101.306 27.016 101.101 27.896C100.895 28.776 100.793 29.5093 100.793 30.096C100.793 30.7707 100.939 31.372 101.233 31.9C101.555 32.428 101.981 32.7947 102.509 33C100.719 33.4987 99.2674 33.748 98.1528 33.748ZM112.743 8.624C111.775 8.624 110.953 8.28667 110.279 7.612C109.604 6.93733 109.267 6.116 109.267 5.148C109.267 4.18 109.604 3.35867 110.279 2.684C110.953 1.98 111.775 1.628 112.743 1.628C113.711 1.628 114.532 1.98 115.207 2.684C115.911 3.35867 116.263 4.18 116.263 5.148C116.263 6.116 115.911 6.93733 115.207 7.612C114.532 8.28667 113.711 8.624 112.743 8.624ZM109.751 33.264C108.343 33.264 107.199 32.824 106.319 31.944C105.468 31.064 105.043 29.744 105.043 27.984C105.043 27.2507 105.16 26.2973 105.395 25.124L108.387 11H114.723L111.555 25.96C111.437 26.4 111.379 26.8693 111.379 27.368C111.379 27.9547 111.511 28.38 111.775 28.644C112.068 28.8787 112.537 28.996 113.183 28.996C114.033 28.996 114.825 28.644 115.559 27.94C116.292 27.2067 116.82 26.268 117.143 25.124H118.991C117.905 28.292 116.512 30.448 114.811 31.592C113.109 32.7067 111.423 33.264 109.751 33.264ZM133.009 33.264C131.22 33.264 129.9 32.7947 129.049 31.856C128.228 30.888 127.817 29.7 127.817 28.292C127.817 27.676 127.89 26.9867 128.037 26.224C128.184 25.432 128.33 24.6693 128.477 23.936C128.653 23.2027 128.77 22.7333 128.829 22.528C129.064 21.5013 129.284 20.4893 129.489 19.492C129.694 18.4947 129.797 17.688 129.797 17.072C129.797 15.576 129.269 14.828 128.213 14.828C127.45 14.828 126.776 15.2093 126.189 15.972C125.602 16.7053 125.133 17.6733 124.781 18.876L121.789 33H115.453L120.117 11H126.453L125.969 13.288C127.436 11.6453 129.152 10.824 131.117 10.824C132.613 10.824 133.801 11.2347 134.681 12.056C135.561 12.8773 136.001 14.124 136.001 15.796C136.001 16.6467 135.898 17.6 135.693 18.656C135.488 19.6827 135.194 20.944 134.813 22.44C134.578 23.3493 134.358 24.244 134.153 25.124C133.977 25.9747 133.889 26.6493 133.889 27.148C133.889 27.7347 134.021 28.1893 134.285 28.512C134.549 28.8347 135.004 28.996 135.649 28.996C136.529 28.996 137.233 28.688 137.761 28.072C138.289 27.4267 138.817 26.444 139.345 25.124H141.193C140.108 28.3507 138.846 30.5213 137.409 31.636C136.001 32.7213 134.534 33.264 133.009 33.264ZM144.62 33.264C142.948 33.264 141.555 32.692 140.44 31.548C139.325 30.404 138.768 28.6147 138.768 26.18C138.768 24.0093 139.193 21.736 140.044 19.36C140.924 16.9547 142.215 14.9307 143.916 13.288C145.647 11.616 147.7 10.78 150.076 10.78C151.279 10.78 152.173 10.9853 152.76 11.396C153.347 11.8067 153.64 12.3493 153.64 13.024V13.2L155.796 3.08L162.308 2.2L157.248 25.96C157.131 26.4 157.072 26.8253 157.072 27.236C157.072 28.4093 157.673 28.996 158.876 28.996C159.404 28.996 159.873 28.908 160.284 28.732C160.167 30.1987 159.639 31.328 158.7 32.12C157.791 32.8827 156.705 33.264 155.444 33.264C154.271 33.264 153.273 32.9707 152.452 32.384C151.66 31.768 151.132 30.844 150.868 29.612C149.108 32.0467 147.025 33.264 144.62 33.264ZM147.48 28.996C148.125 28.996 148.771 28.7173 149.416 28.16C150.091 27.6027 150.589 26.8253 150.912 25.828L151.088 25.124L153.244 15.048C152.98 14.0213 152.379 13.508 151.44 13.508C150.267 13.508 149.211 14.1973 148.272 15.576C147.333 16.9253 146.6 18.568 146.072 20.504C145.544 22.4107 145.28 24.0973 145.28 25.564C145.28 27.0307 145.485 27.9693 145.896 28.38C146.336 28.7907 146.864 28.996 147.48 28.996Z" fill="white"/>
</svg>
